<?xml version="1.0" standalone="no"?>
<!DOCTYPE svg PUBLIC "-//W3C//DTD SVG 20010904//EN"
 "http://www.w3.org/TR/2001/REC-SVG-20010904/DTD/svg10.dtd">
<svg version="1.0" xmlns="http://www.w3.org/2000/svg"
 width="1000.000000pt" height="717.000000pt" viewBox="0 0 1000.000000 717.000000"
 preserveAspectRatio="xMidYMid meet">

<g transform="translate(0.000000,717.000000) scale(0.100000,-0.100000)"
fill="#000000" stroke="none">
<path d="M0 3585 l0 -3585 5000 0 5000 0 0 3585 0 3585 -5000 0 -5000 0 0
-3585z m2105 3275 c384 -54 762 -205 1061 -425 80 -60 235 -192 278 -239 249
-266 393 -498 506 -811 18 -50 36 -106 41 -125 38 -162 51 -232 64 -345 8 -71
17 -136 20 -143 3 -10 421 -12 2062 -12 1132 0 2064 0 2071 0 9 0 12 -457 12
-2250 l0 -2250 -3385 0 -3385 0 0 2250 c0 1793 3 2250 13 2250 6 1 80 1 163 0
131 -1 152 1 158 15 3 9 6 487 6 1062 l0 1046 123 -7 c67 -4 154 -11 192 -16z"/>
<path d="M1836 6833 c-3 -4 -6 -469 -6 -1034 l0 -1029 23 -5 c12 -3 504 -4
1092 -3 l1070 3 -1 75 c-3 280 -132 679 -310 956 -254 397 -580 670 -1034 867
-182 79 -474 147 -693 162 -45 3 -94 8 -108 10 -15 2 -29 1 -33 -2z"/>
<path d="M1540 2510 l0 -2170 1635 0 1635 0 -2 2168 -3 2167 -367 3 -368 2 0
-42 c-1 -50 -26 -270 -39 -343 -30 -160 -97 -361 -176 -522 -114 -232 -237
-405 -420 -589 -125 -125 -211 -196 -362 -296 -103 -69 -368 -208 -395 -208
-8 0 -18 -4 -23 -9 -23 -21 -273 -93 -455 -131 -102 -21 -397 -43 -405 -29 -3
4 -6 493 -8 1086 l-2 1078 -122 3 -123 3 0 -2171z m408 -997 c2 -34 0 -43 -13
-43 -8 0 -21 11 -27 25 -13 28 -39 38 -89 33 l-34 -3 0 -65 0 -65 32 -3 c24
-2 35 2 45 17 24 38 38 25 38 -34 0 -41 -4 -55 -14 -55 -8 0 -18 9 -21 21 -5
16 -14 20 -43 17 l-37 -3 -3 -72 -3 -73 56 0 c54 0 56 1 72 35 24 49 49 43 44
-10 -1 -22 -5 -43 -8 -47 -2 -5 -58 -8 -124 -8 -99 0 -119 3 -119 15 0 8 5 15
10 15 6 0 10 58 10 154 0 93 -4 157 -10 161 -5 3 -10 13 -10 21 0 12 20 14
123 12 l122 -3 3 -42z m687 7 c0 -20 -5 -25 -25 -25 -20 0 -26 6 -28 28 -3 26
-1 28 25 25 22 -2 28 -8 28 -28z m-565 -85 c0 -18 8 -18 40 0 36 21 70 18 97
-7 21 -20 23 -30 23 -119 0 -77 3 -98 15 -103 33 -12 12 -26 -40 -26 -56 0
-67 8 -40 30 18 15 21 150 5 181 -13 23 -47 25 -72 2 -15 -13 -18 -31 -18 -99
0 -46 5 -86 10 -89 23 -14 7 -25 -39 -25 -54 0 -70 10 -46 30 11 9 15 35 15
105 0 70 -4 96 -15 105 -21 18 -9 30 31 30 24 0 34 -5 34 -15z m561 1 c0 -6 0
-56 -1 -112 -1 -80 2 -103 14 -114 9 -7 16 -16 16 -21 0 -10 -93 -12 -103 -3
-3 4 3 18 14 32 16 22 20 39 18 97 -2 93 -10 106 -57 102 -37 -4 -37 -5 -34
-45 2 -22 -2 -50 -8 -62 -14 -27 -72 -52 -103 -45 -28 7 -52 -8 -44 -29 5 -13
21 -16 75 -16 55 0 73 -4 90 -20 59 -55 -9 -140 -113 -140 -85 0 -141 55 -101
99 11 12 14 27 10 50 -5 23 -2 37 11 51 16 17 16 21 1 42 -9 12 -16 39 -16 59
0 29 7 43 31 63 30 25 34 26 165 24 89 -1 134 -5 135 -12z m145 -1 c5 -13 9
-13 34 0 41 21 76 19 100 -7 17 -19 20 -35 20 -114 0 -69 4 -95 15 -104 26
-22 16 -30 -34 -30 -50 0 -76 15 -47 26 13 5 16 23 16 93 0 91 -8 111 -44 111
-43 0 -56 -27 -56 -117 0 -49 4 -83 10 -83 6 0 10 -7 10 -15 0 -11 -12 -15
-50 -15 -38 0 -50 4 -50 15 0 8 5 15 10 15 6 0 10 40 10 99 0 75 -4 101 -15
111 -21 18 -9 30 31 30 21 0 37 -6 40 -15z m404 -12 c21 -21 30 -39 32 -68 l3
-40 -82 -3 c-78 -3 -83 -4 -83 -25 0 -41 27 -67 70 -67 21 0 42 5 45 10 8 13
45 13 45 1 0 -19 -68 -51 -107 -51 -56 0 -89 28 -102 89 -28 133 90 235 179
154z m259 1 c26 -22 31 -33 31 -70 l0 -44 -80 0 c-77 0 -80 -1 -80 -23 0 -41
27 -67 70 -67 21 0 42 5 45 10 8 13 45 13 45 1 0 -19 -68 -51 -106 -51 -48 0
-82 22 -100 66 -55 131 75 263 175 178z m148 6 c5 -20 5 -20 34 1 41 29 83 23
87 -14 4 -33 -24 -49 -43 -24 -16 22 -31 21 -55 -3 -16 -16 -20 -33 -20 -94 0
-53 4 -77 15 -86 27 -22 16 -30 -40 -30 -56 0 -67 8 -40 30 11 9 15 35 15 107
0 74 -3 95 -15 99 -30 12 -16 34 21 34 27 0 37 -5 41 -20z m321 8 c17 -17 15
-48 -5 -55 -11 -4 -22 1 -31 15 -26 40 -102 20 -86 -22 4 -9 25 -26 48 -38 88
-44 108 -87 61 -133 -20 -21 -34 -25 -84 -25 -61 0 -91 15 -91 46 0 26 31 29
50 4 20 -27 64 -30 88 -6 23 23 7 45 -50 73 -26 12 -53 31 -60 42 -21 30 -11
79 21 96 32 17 123 19 139 3z"/>
<path d="M2361 1401 c-27 -50 -3 -105 44 -99 36 4 54 43 39 86 -12 35 -67 44
-83 13z"/>
<path d="M2340 1161 c-24 -46 -1 -71 68 -71 25 0 45 7 55 18 38 42 10 72 -67
72 -35 0 -48 -5 -56 -19z"/>
<path d="M3084 1412 c-13 -8 -34 -46 -34 -61 0 -7 23 -11 55 -11 59 0 64 6 45
54 -9 26 -42 35 -66 18z"/>
<path d="M3330 1398 c-11 -12 -20 -30 -20 -40 0 -15 9 -18 55 -18 61 0 70 14
39 58 -19 28 -48 28 -74 0z"/>
<path d="M1837 4673 c-4 -3 -7 -483 -7 -1066 l0 -1059 98 6 c252 18 462 62
682 146 30 11 69 26 85 32 61 23 255 127 341 183 135 88 249 179 359 290 211
211 322 376 485 725 4 8 23 67 43 130 61 199 97 397 97 543 l0 77 -1088 0
c-599 0 -1092 -3 -1095 -7z"/>
<path d="M4885 4668 c-3 -7 -4 -483 -3 -1058 l3 -1045 530 0 530 0 5 35 c5 35
5 35 55 35 l50 0 5 55 5 55 60 5 60 5 1 45 c1 25 2 51 3 58 1 8 19 12 56 12
l54 0 3 58 3 57 58 3 57 3 0 54 0 54 63 3 62 3 5 60 5 60 45 2 c25 1 51 2 58
2 8 1 12 19 12 56 l0 54 58 3 57 3 3 57 3 57 57 3 57 3 5 55 5 55 55 5 55 5 3
53 3 52 49 0 c27 0 52 5 56 12 4 6 8 32 8 57 l1 46 60 5 60 5 3 57 3 57 57 3
57 3 5 55 5 55 45 2 c25 1 51 2 58 2 8 1 12 19 12 56 l0 54 58 3 57 3 3 58 3
57 59 0 60 0 0 60 0 59 58 3 57 3 1 50 1 50 59 5 59 5 5 60 5 60 58 -3 c60 -4
90 9 80 34 -4 12 -231 14 -1624 14 -1287 0 -1621 -3 -1624 -12z"/>
<path d="M8030 4540 c0 -27 1 -50 3 -50 6 0 97 89 97 95 0 3 -22 5 -50 5 l-50
0 0 -50z"/>
<path d="M8085 4487 c-41 -43 -454 -445 -1235 -1202 -96 -93 -267 -259 -380
-370 -113 -110 -240 -233 -283 -274 -42 -40 -77 -77 -77 -82 0 -5 38 -9 85 -9
l84 0 3 -57 3 -58 55 -5 55 -5 5 -60 5 -60 50 -5 50 -5 0 -45 c1 -62 8 -70 66
-70 l49 0 0 -60 0 -60 55 0 55 0 0 -59 0 -60 55 -6 55 -7 0 -54 0 -53 58 -3
57 -3 5 -60 5 -60 45 -1 45 0 5 -60 5 -59 55 -5 55 -5 3 -57 3 -57 52 -3 52
-3 3 -57 3 -57 52 -3 52 -3 5 -60 5 -60 53 -3 c31 -2 52 -8 53 -15 0 -7 1 -32
2 -57 l2 -45 52 -3 52 -3 3 -57 3 -57 55 -5 55 -5 3 -57 3 -58 49 0 c55 0 63
-10 55 -72 -6 -44 2 -51 64 -52 l46 -1 1 -60 1 -60 56 -3 56 -3 3 -57 c3 -54
4 -57 31 -60 l27 -3 0 2025 c0 1114 -3 2026 -7 2026 -5 0 -22 -15 -38 -33z"/>
<path d="M7910 4424 l0 -57 49 44 c64 57 64 69 1 69 l-50 0 0 -56z"/>
<path d="M7787 4313 c-3 -27 -3 -52 0 -56 6 -9 103 81 103 95 0 4 -22 8 -49 8
l-48 0 -6 -47z"/>
<path d="M7670 4189 l0 -52 48 44 c26 24 49 47 50 51 2 4 -19 8 -47 8 l-51 0
0 -51z"/>
<path d="M7552 4116 c-9 -16 -11 -85 -3 -91 4 -2 30 18 56 45 27 28 47 51 45
51 -23 7 -93 3 -98 -5z"/>
<path d="M7429 4003 c0 -5 -2 -27 -4 -50 -2 -29 1 -43 9 -43 12 0 96 81 96 93
0 9 -100 9 -101 0z"/>
<path d="M7307 3883 c-10 -9 -9 -93 1 -93 13 0 92 77 92 90 0 11 -82 14 -93 3z"/>
<path d="M7234 3772 c-41 -3 -42 -4 -47 -45 -2 -23 -1 -45 2 -49 4 -5 28 14
55 41 26 27 44 50 39 52 -4 2 -27 3 -49 1z"/>
<path d="M7067 3653 c-10 -9 -9 -103 1 -103 10 0 102 93 102 103 0 9 -94 9
-103 0z"/>
<path d="M6949 3533 c-5 -46 -2 -79 6 -80 12 -2 85 64 85 77 0 12 -90 14 -91
3z"/>
<path d="M6829 3418 c-6 -17 -6 -98 -1 -98 4 0 30 23 57 50 l49 50 -52 0 c-29
0 -52 -1 -53 -2z"/>
<path d="M6711 3300 c-13 -9 -11 -90 2 -90 16 0 105 90 92 91 -33 4 -88 3 -94
-1z"/>
<path d="M6580 3135 c0 -25 3 -45 6 -45 8 0 88 71 92 82 2 4 -19 8 -47 8 l-51
0 0 -45z"/>
<path d="M6467 3063 c-9 -8 -9 -78 0 -87 7 -7 93 72 93 86 0 10 -84 11 -93 1z"/>
<path d="M6347 2943 c-9 -9 -9 -93 0 -93 10 0 93 82 93 92 0 10 -84 11 -93 1z"/>
<path d="M6227 2823 c-10 -9 -9 -71 1 -77 5 -3 28 15 52 39 l44 45 -45 0 c-25
0 -49 -3 -52 -7z"/>
<path d="M6113 2708 c-13 -22 -13 -78 1 -78 16 0 88 75 80 83 -12 12 -72 8
-81 -5z"/>
<path d="M5987 2593 c-19 -18 -5 -33 31 -33 36 0 62 14 62 32 0 10 -84 11 -93
1z"/>
<path d="M4889 2494 c-5 -7 -8 -441 -7 -1080 l3 -1069 1603 -3 c881 -1 1602 1
1602 4 0 10 -132 156 -366 404 -39 41 -183 197 -319 345 -137 149 -306 331
-375 405 -274 295 -338 363 -566 611 -43 48 -142 153 -219 235 l-139 149 -604
5 c-435 4 -606 2 -613 -6z"/>
<path d="M6160 2500 c0 -11 71 -90 81 -90 11 0 12 90 2 91 -69 5 -83 5 -83 -1z"/>
<path d="M6270 2385 c0 -10 74 -95 83 -95 4 0 7 21 5 48 l-3 47 -42 3 c-24 2
-43 0 -43 -3z"/>
<path d="M6380 2264 c0 -10 72 -94 81 -94 5 0 9 23 9 50 l0 50 -45 0 c-25 0
-45 -3 -45 -6z"/>
<path d="M6500 2134 c0 -9 64 -84 73 -84 4 0 7 20 7 45 l0 45 -40 0 c-22 0
-40 -3 -40 -6z"/>
<path d="M6601 2022 c5 -13 78 -92 85 -92 3 0 4 21 2 48 l-3 47 -44 3 c-24 2
-42 -1 -40 -6z"/>
<path d="M6720 1893 c1 -15 71 -84 80 -78 5 3 8 22 7 43 -2 36 -3 37 -44 40
-24 2 -43 0 -43 -5z"/>
<path d="M6840 1768 c1 -16 56 -78 70 -78 11 0 14 49 4 74 -7 20 -74 23 -74 4z"/>
<path d="M6947 1654 c-8 -8 61 -84 76 -84 4 0 7 19 5 43 -3 40 -4 42 -38 45
-20 2 -39 0 -43 -4z"/>
<path d="M7060 1522 c0 -10 63 -72 73 -72 4 0 7 18 7 40 l0 40 -40 0 c-22 0
-40 -4 -40 -8z"/>
<path d="M7170 1405 c0 -8 66 -75 74 -75 3 0 6 18 6 40 l0 40 -40 0 c-22 0
-40 -2 -40 -5z"/>
<path d="M7290 1285 c0 -10 54 -75 63 -75 5 0 7 17 5 38 -3 34 -6 37 -35 40
-18 2 -33 0 -33 -3z"/>
<path d="M7420 1133 c19 -21 36 -39 37 -41 1 -2 6 -1 11 2 5 3 7 20 3 38 -6
29 -11 33 -46 36 l-40 3 35 -38z"/>
<path d="M7540 1000 c35 -45 54 -42 48 6 -3 26 -7 29 -42 32 l-39 3 33 -41z"/>
<path d="M7630 913 c1 -13 48 -63 60 -63 7 0 10 13 8 33 -3 28 -7 32 -35 35
-18 2 -33 0 -33 -5z"/>
<path d="M7740 794 c0 -9 55 -74 63 -74 4 0 7 18 7 40 0 39 -1 40 -35 40 -19
0 -35 -2 -35 -6z"/>
<path d="M7860 667 c0 -14 40 -57 54 -57 4 0 6 15 4 33 -2 27 -8 33 -30 35
-19 2 -28 -1 -28 -11z"/>
<path d="M7960 553 c1 -9 57 -73 65 -73 3 0 5 18 5 40 0 39 -1 40 -35 40 -19
0 -35 -3 -35 -7z"/>
<path d="M8080 422 c0 -17 48 -54 55 -43 12 21 -5 51 -31 51 -13 0 -24 -4 -24
-8z"/>
</g>
</svg>
